<svg width="192" height="192" viewBox="0 0 192 192" fill="none" xmlns="http://www.w3.org/2000/svg">
<path fill-rule="evenodd" clip-rule="evenodd" d="M118.373 68.3136C112.215 78.9803 96.8189 78.9803 90.6605 68.3135L80.6193 50.9215C76.1864 43.2434 78.8417 33.2036 87.3895 30.8503C98.4382 27.8084 110.295 27.7165 121.675 30.9189C130.182 33.3125 132.797 43.3311 128.379 50.9838L118.373 68.3136Z" fill="#A9FF90"/>
<path fill-rule="evenodd" clip-rule="evenodd" d="M86.651 70.2762C92.8094 80.9429 85.1114 94.2763 72.7945 94.2762L52.7119 94.2761C43.8461 94.2761 36.479 86.9567 38.7148 78.3774C41.6048 67.288 47.4536 56.9738 55.9172 48.7192C62.2432 42.5495 72.2274 45.2938 76.6456 52.9465L86.651 70.2762Z" fill="#9EE989"/>
<path fill-rule="evenodd" clip-rule="evenodd" d="M118.373 124.498C112.215 113.831 96.8189 113.831 90.6606 124.498L80.6193 141.89C76.1865 149.568 78.8417 159.608 87.3895 161.961C98.4382 165.003 110.295 165.095 121.675 161.893C130.182 159.499 132.797 149.481 128.379 141.828L118.373 124.498Z" fill="#99BBDD"/>
<path fill-rule="evenodd" clip-rule="evenodd" d="M86.6501 122.535C92.8085 111.868 85.1104 98.5348 72.7936 98.5348L52.711 98.5349C43.8451 98.5349 36.478 105.854 38.7138 114.434C41.6038 125.523 47.4526 135.837 55.9163 144.092C62.2423 150.262 72.2264 147.517 76.6447 139.865L86.6501 122.535Z" fill="#8BDAE7"/>
</svg>
